<svg width="33" height="27" viewBox="0 0 33 27" fill="none" xmlns="http://www.w3.org/2000/svg">
<path d="M10.7247 26.4304C22.9765 26.4304 29.6796 16.2774 29.6796 7.47548C29.6796 7.19005 29.6732 6.89828 29.6605 6.61285C30.9645 5.66985 32.0898 4.50182 32.9835 3.16363C31.7691 3.70394 30.4798 4.05681 29.1595 4.21019C30.5496 3.37689 31.5905 2.06782 32.0892 0.525647C30.7814 1.30071 29.3512 1.84745 27.8598 2.14243C26.855 1.07474 25.5264 0.367803 24.0795 0.130916C22.6326 -0.105971 21.1479 0.140387 19.8551 0.831901C18.5622 1.52342 17.5332 2.62157 16.927 3.95658C16.3209 5.29159 16.1714 6.7891 16.5017 8.21759C13.8536 8.0847 11.2629 7.39678 8.89771 6.19844C6.5325 5.00009 4.44551 3.31807 2.77205 1.26141C1.92151 2.72784 1.66125 4.46311 2.04415 6.11453C2.42705 7.76596 3.42439 9.20964 4.83347 10.1521C3.77562 10.1186 2.74094 9.83375 1.81492 9.32124V9.40369C1.81397 10.9426 2.34599 12.4343 3.32053 13.6254C4.29508 14.8164 5.65201 15.6331 7.16065 15.9368C6.18072 16.2049 5.15224 16.244 4.15479 16.051C4.5805 17.3744 5.40878 18.532 6.52403 19.3621C7.63928 20.1921 8.98586 20.6533 10.3758 20.6812C8.01607 22.5349 5.10108 23.5403 2.10035 23.5355C1.56819 23.5347 1.03656 23.5021 0.508301 23.4378C3.55672 25.3935 7.10285 26.4323 10.7247 26.4304Z" fill="black"/>
</svg>
